HIERARCHY
ROOT Hips
{
	OFFSET -3.958830 18.904000 13.208200
	CHANNELS 6 Xposition Yposition Zposition Zrotation Yrotation Xrotation 
	JOINT LHipJoint
	{
		OFFSET 0.000000 0.000000 0.000000
		CHANNELS 3 Zrotation Yrotation Xrotation
		JOINT LeftUpLeg
		{
			OFFSET 1.800000 -1.400000 0.085000
			CHANNELS 3 Zrotation Yrotation Xrotation
			JOINT LeftLeg
			{
				OFFSET 2.215000 -6.000000 0.000000
				CHANNELS 3 Zrotation Yrotation Xrotation
				JOINT LeftFoot
				{
					OFFSET 2.500000 -6.900000 0.000000
					CHANNELS 3 Zrotation Yrotation Xrotation
					JOINT LeftToeBase
					{
						OFFSET 0.200000 -0.500000 1.950000
						CHANNELS 3 Zrotation Yrotation Xrotation
						End Site
						{
							OFFSET 0.000000 0.000000 0.000000
						}
					}
				}
			}
		}
	}
	JOINT RHipJoint
	{
		OFFSET 0.000000 0.000000 0.000000
		CHANNELS 3 Zrotation Yrotation Xrotation
		JOINT RightUpLeg
		{
			OFFSET -1.800000 -1.400000 0.085000
			CHANNELS 3 Zrotation Yrotation Xrotation
			JOINT RightLeg
			{
				OFFSET -2.215000 -6.000000 0.000000
				CHANNELS 3 Zrotation Yrotation Xrotation
				JOINT RightFoot
				{
					OFFSET -2.500000 -6.900000 0.000000
					CHANNELS 3 Zrotation Yrotation Xrotation
					JOINT RightToeBase
					{
						OFFSET -0.200000 -0.500000 1.950000
						CHANNELS 3 Zrotation Yrotation Xrotation
						End Site
						{
							OFFSET 0.000000 0.000000 0.000000
						}
					}
				}
			}
		}
	}
	JOINT LowerBack
	{
		OFFSET 0.000000 0.000000 0.000000
		CHANNELS 3 Zrotation Yrotation Xrotation
		JOINT Spine
		{
			OFFSET -0.087000 1.940000 -0.288900
			CHANNELS 3 Zrotation Yrotation Xrotation
			JOINT Spine1
			{
				OFFSET 0.000000 1.950000 0.060000
				CHANNELS 3 Zrotation Yrotation Xrotation
				JOINT Neck
				{
					OFFSET 0.000000 0.000000 0.000000
					CHANNELS 3 Zrotation Yrotation Xrotation
					JOINT Neck1
					{
						OFFSET 0.000000 1.600000 0.340000
						CHANNELS 3 Zrotation Yrotation Xrotation
						JOINT Head
						{
							OFFSET 0.000000 1.667000 -0.240000
							CHANNELS 3 Zrotation Yrotation Xrotation
							End Site
							{
								OFFSET 0.000000 0.000000 0.000000
							}
						}
					}
				}
				JOINT LeftShoulder
				{
					OFFSET 0.000000 0.000000 0.000000
					CHANNELS 3 Zrotation Yrotation Xrotation
					JOINT LeftArm
					{
						OFFSET 2.700000 1.550000 -0.730000
						CHANNELS 3 Zrotation Yrotation Xrotation
						JOINT LeftForeArm
						{
							OFFSET 5.450000 0.000000 0.000000
							CHANNELS 3 Zrotation Yrotation Xrotation
							JOINT LeftHand
							{
								OFFSET 3.450000 0.000000 0.000000
								CHANNELS 3 Zrotation Yrotation Xrotation
								JOINT LeftHandIndex1
								{
									OFFSET 0.750000 0.000000 0.000000
									CHANNELS 3 Zrotation Yrotation Xrotation
									End Site
									{
										OFFSET 0.000000 0.000000 0.000000
									}
								}
							}
						}
					}
				}
				JOINT RightShoulder
				{
					OFFSET 0.000000 0.000000 0.000000
					CHANNELS 3 Zrotation Yrotation Xrotation
					JOINT RightArm
					{
						OFFSET -2.700000 1.550000 -0.730000
						CHANNELS 3 Zrotation Yrotation Xrotation
						JOINT RightForeArm
						{
							OFFSET -5.450000 0.000000 0.000000
							CHANNELS 3 Zrotation Yrotation Xrotation
							JOINT RightHand
							{
								OFFSET -3.450000 0.000000 0.000000
								CHANNELS 3 Zrotation Yrotation Xrotation
								JOINT RightHandIndex1
								{
									OFFSET -0.750000 0.000000 0.000000
									CHANNELS 3 Zrotation Yrotation Xrotation
									End Site
									{
										OFFSET 0.000000 0.000000 0.000000
									}
								}
							}
						}
					}
				}
			}
		}
	}
}
MOTION
Frames: 11
Frame Time: 0.016667
0.103730 17.801200 -0.542600 -21.506876 36.461585 -19.094674 -15.274931 12.565029 1.422889 18.038856 -0.308237 -11.673444 -2.148082 5.909026 17.266862 -0.432576 4.396448 3.015490 0.631650 0.319100 0.562330 18.474987 -8.372697 5.922301 -26.619764 8.253434 -46.840931 37.837764 -32.496229 53.393926 -2.529729 -12.305455 0.396444 0.074360 0.000170 0.127420 -4.597471 -2.131098 -8.941871 27.003817 -16.162773 49.388602 -10.661292 -5.349553 10.113959 2.917971 0.304270 -11.841186 -3.849125 -4.659121 43.212378 13.136580 -7.078590 -26.022940 1.251641 -23.772262 3.642568 23.043418 -8.717004 -8.439104 24.795602 -37.035825 -5.342569 -3.232496 2.932712 0.844880 -0.288040 0.302420 0.219900 -7.227570 20.935617 7.660788 -15.938037 3.247084 -12.968044 -41.897040 26.292579 -9.016885 2.314024 -1.411828 -0.123690 0.312690 -0.221240 -0.146170 
-0.020430 17.768800 -0.506910 -23.103524 39.717214 -21.049146 -15.328624 12.325811 1.379022 19.169223 -0.229191 -14.059539 -2.980108 6.917438 21.339123 -0.413948 4.928282 2.788768 0.529740 0.172310 0.536240 18.452663 -8.139908 6.110161 -25.878844 9.722349 -46.229252 47.278197 -41.303651 55.343506 -3.021399 -13.544808 0.166472 -0.004760 0.020520 0.101980 -4.701318 -1.963706 -9.151659 28.577221 -16.297143 49.639294 -11.622966 -4.512586 9.814248 3.131641 0.959980 -12.600254 -2.780031 -5.898748 44.772165 14.928540 -8.551590 -26.700320 1.277914 -24.196983 5.125797 20.430672 -6.137456 -7.924366 25.925501 -34.646475 -5.455956 -3.258181 2.836812 0.896250 -0.298490 0.279470 0.162480 -7.790835 21.508551 7.267266 -12.711308 3.716332 -15.024504 -48.664375 33.384076 -13.495138 2.231416 -1.303234 -0.180490 0.340900 -0.154780 -0.175700 
-0.178290 17.699930 -0.441740 -22.200173 40.879496 -21.611883 -15.383644 12.288102 1.367044 19.600917 0.273464 -14.583347 -3.686606 8.034186 24.564218 -0.267264 5.398852 2.600905 0.522460 0.187040 0.519430 18.395358 -7.921748 6.244880 -23.802968 12.234765 -46.024640 53.487228 -49.077670 58.655886 -3.434357 -14.532572 0.012025 -0.024740 -0.015370 0.084830 -4.570320 -2.108454 -9.292532 26.205896 -13.785619 51.439519 -10.528804 -3.273892 10.322517 3.123277 1.077945 -13.428739 -2.274183 -6.343193 45.724445 15.731560 -9.266770 -26.771450 1.598956 -23.444692 7.071695 16.134013 -0.830147 -7.242295 27.629975 -32.231436 -5.644706 -3.212081 2.896751 0.882470 -0.327230 0.298820 0.171890 -8.063311 22.071111 6.634874 -9.814789 5.299072 -16.882498 -55.531592 40.517759 -19.616035 2.176621 -1.223026 -0.151880 0.309790 -0.186750 -0.156610 
-0.314030 17.580700 -0.376800 -21.897422 43.582331 -22.299699 -15.490813 12.377628 1.462364 19.929206 0.709362 -14.760100 -4.720859 8.635028 24.554297 -0.249272 5.636883 2.518365 0.434420 0.041330 0.474900 18.257951 -7.733730 6.235427 -21.932739 12.770464 -44.545678 60.855674 -56.759173 59.001290 -3.574891 -14.779066 -0.013943 -0.088750 0.006710 0.080620 -4.264923 -2.616519 -9.371602 23.794190 -10.898131 52.510631 -7.677377 -2.127538 11.110174 2.942344 1.221972 -14.444527 -1.471900 -6.956029 45.169779 17.703940 -10.661310 -25.949780 3.361194 -22.188748 9.111994 6.113301 4.340908 -8.024160 33.136531 -33.487302 -8.244844 -3.193645 2.973768 0.906630 -0.319930 0.245860 0.133170 -9.440479 22.117646 6.406473 -6.058984 4.527021 -19.112307 -68.279678 49.300799 -31.488210 2.035970 -0.967294 -0.202580 0.276420 -0.133640 -0.185310 
-0.417780 17.482420 -0.278390 -20.602499 47.265778 -21.997635 -15.571417 12.434190 1.408368 18.467539 0.944005 -15.221646 -4.360597 8.653775 25.016262 -0.251595 5.532399 2.548751 0.346320 -0.081300 0.512470 18.133549 -7.742232 6.294724 -20.970925 12.491402 -41.684298 61.464965 -65.131928 64.657281 -3.772447 -15.093824 -0.045775 -0.197420 -0.043840 0.093030 -4.261625 -2.628573 -9.443486 22.567061 -8.351216 52.399084 -7.158893 -1.155678 9.634775 2.702492 3.477747 -15.390779 2.882803 -8.444596 50.634649 19.493340 -10.102080 -28.138300 1.904575 -22.967691 10.152326 4.905547 8.857666 -7.825556 31.287156 -36.879673 -8.133453 -3.115455 2.886681 1.010880 -0.352140 0.312980 0.061760 -7.672109 21.922972 6.503853 -4.253951 5.221295 -18.929855 -83.448406 56.397397 -47.007331 1.876161 -0.264474 -0.226160 0.258570 -0.105020 -0.242300 
-0.527750 17.369240 -0.171190 -17.830607 51.696194 -18.337821 -15.703584 12.441891 1.557205 15.866834 0.279177 -19.432062 -3.906886 8.940688 27.769670 -0.291924 5.618460 2.484501 0.260470 -0.247720 0.584610 17.995232 -7.281277 6.594945 -21.270446 11.979297 -39.483608 52.848023 -71.908119 77.210163 -4.093850 -16.196953 -0.253116 -0.309460 -0.118130 0.086340 -3.747150 -3.571850 -9.622159 17.793020 -3.904206 51.301097 -3.176035 0.357235 7.194026 2.098920 4.965764 -17.214020 5.656194 -10.175139 55.747147 19.589440 -10.505710 -28.958470 0.338327 -22.788610 11.049110 1.567337 10.927300 -7.259396 29.987724 -34.860266 -7.200799 -3.107591 2.779304 1.125460 -0.389680 0.346650 -0.029530 -5.095312 21.539589 7.962936 -6.024233 4.787001 -15.385317 -106.626634 57.007069 -74.810315 2.033299 0.049553 -0.276200 0.225750 -0.074050 -0.336440 
-0.624670 17.272260 -0.076840 -15.474342 57.446354 -14.067841 -15.797384 11.870249 1.677342 13.430640 -0.586059 -24.536889 -3.963216 9.330718 30.100763 -0.322477 5.731565 2.403426 0.235430 -0.265000 0.619360 17.980353 -6.690523 7.046722 -22.555082 13.144628 -37.824346 31.925645 -73.734834 100.109173 -4.891694 -19.607912 -0.870793 -0.323400 -0.146090 0.092160 -3.618046 -3.588820 -9.890620 15.663253 -0.895121 48.224573 -1.453982 1.663583 5.549417 1.567245 8.237673 -17.516724 13.436979 -14.912193 55.058265 19.119080 -11.203840 -29.879840 -1.864014 -22.626853 11.264531 2.547907 10.720406 -5.250306 23.890197 -31.285814 -4.551392 -3.146919 2.673732 1.139470 -0.372110 0.365400 -0.078880 -2.195991 19.310706 7.890953 -7.602147 5.168782 -12.961131 -121.493798 56.315810 -96.228599 2.241628 -0.635131 -0.281140 0.222330 -0.057040 -0.370390 
-0.702380 17.212590 -0.032670 -11.834730 62.425717 -9.207413 -15.798521 11.267938 1.752941 10.791113 -1.281315 -27.730177 -4.286848 9.482445 30.976730 -0.448770 5.782206 2.397720 0.261790 -0.240660 0.614350 18.041446 -6.489879 7.269350 -23.965394 14.731205 -35.643900 13.845736 -71.433225 119.771670 -5.558861 -22.697037 -1.325873 -0.230890 -0.076900 0.053420 -3.851776 -2.987609 -9.994205 15.432748 0.532653 44.839779 -2.063198 2.081196 6.076259 1.803062 10.094050 -16.318909 18.130800 -17.478874 50.676327 18.512030 -12.800470 -28.595230 -4.074821 -21.964271 11.310917 6.591251 9.522301 -1.688067 11.797118 -23.589095 -1.081888 -3.228460 2.548393 1.120240 -0.315590 0.290230 -0.065750 -0.432857 17.491688 6.011011 -11.159846 7.998290 -11.887192 -130.696914 56.858635 -108.156742 2.240680 -0.912652 -0.356740 0.306740 -0.033100 -0.384770 
-0.728580 17.168720 0.028170 -7.760903 66.993272 -3.713023 -15.705375 10.885945 2.048436 8.954290 -2.119450 -29.963984 -5.860673 9.633629 30.416474 -0.511979 5.744558 2.385794 0.294360 -0.229360 0.624190 18.151030 -6.851456 7.026156 -24.324539 15.543309 -32.661978 5.199607 -65.864339 127.240670 -5.544521 -23.002478 -1.446197 -0.183990 -0.068700 0.089650 -4.094852 -2.230345 -9.905868 15.891795 1.288400 40.712246 -3.186744 2.519289 5.958302 2.332236 11.139333 -15.246965 20.627308 -19.472221 47.751624 17.259170 -14.743810 -26.760820 -7.252721 -21.660954 11.176956 8.257768 7.929107 0.252658 4.278513 -16.314829 -0.139874 -3.318648 2.560351 1.074040 -0.285250 0.245790 -0.084530 1.847131 16.550662 4.530994 -14.018266 10.757050 -10.560900 -139.516732 57.747734 -119.343549 2.267636 -1.103966 -0.343980 0.271810 -0.005740 -0.386010 
-0.749000 17.192920 0.080730 -3.719158 71.061765 -1.059885 -15.635811 10.846507 2.020299 6.868304 -2.199153 -28.795782 -5.553197 9.051031 29.735208 -0.604757 5.501463 2.517319 0.288450 -0.217190 0.548160 18.189203 -7.431124 6.816152 -23.927198 16.483708 -25.431736 8.354300 -62.762581 121.136804 -5.031867 -21.402910 -1.286692 -0.116260 0.030240 0.058840 -4.489847 -1.419948 -9.618825 17.795783 0.855538 39.880228 -5.595632 2.777174 8.342813 3.345483 11.433597 -14.418771 21.695518 -20.231143 43.038206 17.390960 -16.192230 -25.400070 -7.670215 -20.292271 11.006478 4.773764 10.819697 -0.089668 4.907905 -19.869156 -0.385168 -3.331599 2.645227 1.009180 -0.222380 0.151690 -0.050520 0.364363 15.302063 4.125899 -14.155453 11.313118 -10.494232 -142.030634 59.153008 -125.315237 2.242256 -1.237388 -0.394510 0.332890 0.026760 -0.358400 
-0.732410 17.285160 0.125410 -1.174588 74.214230 0.310954 -15.570988 11.186381 2.028551 5.573293 -1.883669 -25.893714 -5.616389 7.840718 25.721927 -0.723679 4.693458 2.760767 0.286230 -0.227530 0.611790 18.131314 -8.312259 6.313993 -21.295439 16.904135 -19.284441 15.730455 -58.343577 108.519836 -4.516820 -19.453481 -1.092713 -0.157940 -0.080770 0.118330 -4.766625 -0.792818 -9.204608 20.475969 0.530988 39.766460 -7.666606 3.688181 8.709170 3.928555 12.172400 -15.406070 25.017628 -23.610051 43.988069 18.769520 -16.090210 -29.669730 -9.096422 -21.025189 11.908602 0.690707 10.944728 -0.768398 8.716515 -17.879567 -1.067128 -3.343077 2.625209 1.088720 -0.280200 0.245200 -0.134870 0.479759 15.815261 4.668235 -15.195307 10.110970 -10.310508 -141.230343 60.601715 -124.821491 2.286995 -1.184700 -0.348110 0.252190 0.047730 -0.403080 
